<svg xmlns="http://www.w3.org/2000/svg" xmlns:xlink="http://www.w3.org/1999/xlink" width="1024" zoomAndPan="magnify" viewBox="0 0 768 576" height="768" preserveAspectRatio="xMidYMid meet" version="1.0"><defs><g><g id="id1"/><g id="id2"/><g id="id3"/></g></defs><path fill="rgb(8.628845%, 34.118652%, 45.098877%)" d="M 74.589844 275.976562 C 42.488281 275.976562 16.464844 302 16.464844 334.101562 C 16.464844 366.203125 42.488281 392.226562 74.589844 392.226562 C 106.691406 392.226562 132.714844 366.203125 132.714844 334.101562 C 132.714844 302 106.691406 275.976562 74.589844 275.976562 " fill-opacity="1" fill-rule="nonzero"/><path fill="rgb(8.628845%, 34.118652%, 45.098877%)" d="M 230.65625 275.976562 L 288.464844 333.785156 L 230.65625 391.589844 L 172.851562 333.785156 L 230.65625 275.976562 " fill-opacity="1" fill-rule="nonzero"/><path fill="rgb(8.628845%, 34.118652%, 45.098877%)" d="M 582.058594 210.804688 L 342.460938 210.804688 C 334.917969 210.804688 328.769531 204.648438 328.769531 197.09375 L 328.769531 151.765625 C 328.769531 144.210938 334.917969 138.054688 342.460938 138.054688 L 582.058594 138.054688 C 589.601562 138.054688 595.75 144.210938 595.75 151.765625 L 595.75 197.09375 C 595.75 204.648438 589.601562 210.804688 582.058594 210.804688 " fill-opacity="1" fill-rule="nonzero"/><path fill="rgb(8.628845%, 34.118652%, 45.098877%)" d="M 507.679688 291.945312 L 423.261719 291.945312 L 416.933594 292.046875 L 328.761719 375.945312 L 507.964844 375.945312 L 595.757812 291.945312 L 507.679688 291.945312 " fill-opacity="1" fill-rule="nonzero"/><path fill="rgb(8.628845%, 34.118652%, 45.098877%)" d="M 693.566406 275.976562 C 661.464844 275.976562 635.441406 302 635.441406 334.101562 C 635.441406 366.203125 661.464844 392.226562 693.566406 392.226562 C 725.667969 392.226562 751.691406 366.203125 751.691406 334.101562 C 751.691406 302 725.667969 275.976562 693.566406 275.976562 " fill-opacity="1" fill-rule="nonzero"/><path fill="rgb(8.628845%, 34.118652%, 45.098877%)" d="M 582.058594 530.175781 L 342.460938 530.175781 C 334.917969 530.175781 328.769531 524.019531 328.769531 516.464844 L 328.769531 471.136719 C 328.769531 463.582031 334.917969 457.425781 342.460938 457.425781 L 582.058594 457.425781 C 589.601562 457.425781 595.75 463.582031 595.75 471.136719 L 595.75 516.464844 C 595.75 524.019531 589.601562 530.175781 582.058594 530.175781 " fill-opacity="1" fill-rule="nonzero"/><path stroke-linecap="round" transform="matrix(3.721474, 0, 0, 3.75, 132.557015, 334.255758)" fill="none" stroke-linejoin="miter" d="M 0.500058 -0.000493819 L 9.931174 -0.000493819 " stroke="rgb(8.628845%, 34.118652%, 45.098877%)" stroke-width="1" stroke-opacity="1" stroke-miterlimit="4"/><path stroke-linecap="round" transform="matrix(3.721474, 0, 0, 3.75, 172.307074, 334.255758)" fill="none" stroke-linejoin="round" d="M -2.499861 -1.500494 L -0.500275 -0.000493819 L -2.499861 1.499506 " stroke="rgb(8.628845%, 34.118652%, 45.098877%)" stroke-width="1" stroke-opacity="1" stroke-miterlimit="4"/><path stroke-linecap="round" transform="matrix(3.74356, 0, 0, 3.75, 288.70493, 335.899576)" fill="none" stroke-linejoin="miter" d="M 0.500378 -0.000303494 L 21.088857 -0.000303494 " stroke="rgb(8.628845%, 34.118652%, 45.098877%)" stroke-width="1" stroke-opacity="1" stroke-miterlimit="4"/><path stroke-linecap="round" transform="matrix(3.74356, 0, 0, 3.75, 370.459554, 335.899576)" fill="none" stroke-linejoin="round" d="M -2.499757 -1.500304 L -0.500491 -0.000303494 L -2.499757 1.499697 " stroke="rgb(8.628845%, 34.118652%, 45.098877%)" stroke-width="1" stroke-opacity="1" stroke-miterlimit="4"/><path stroke-linecap="round" transform="matrix(3.74356, 0, 0, 3.75, 553.547737, 334.024576)" fill="none" stroke-linejoin="miter" d="M 0.499586 -0.000303515 L 21.08911 -0.000303515 " stroke="rgb(8.628845%, 34.118652%, 45.098877%)" stroke-width="1" stroke-opacity="1" stroke-miterlimit="4"/><path stroke-linecap="round" transform="matrix(3.74356, 0, 0, 3.75, 635.302366, 334.024576)" fill="none" stroke-linejoin="round" d="M -2.499506 -1.500304 L -0.50024 -0.000303515 L -2.499506 1.499697 " stroke="rgb(8.628845%, 34.118652%, 45.098877%)" stroke-width="1" stroke-opacity="1" stroke-miterlimit="4"/><path stroke-linecap="round" transform="matrix(3.755824, 0, 0, 3.75, 595.388231, 168.714726)" fill="none" stroke-linejoin="miter" d="M 0.499862 0.0000314613 L 25.660789 0.0000314613 " stroke="rgb(8.628845%, 34.118652%, 45.098877%)" stroke-width="1" stroke-opacity="1" stroke-miterlimit="4"/><path stroke-linecap="round" transform="matrix(-0.0297348, 3.762365, -3.749883, -0.0296362, 695.359723, 166.844559)" fill="none" stroke-linejoin="miter" d="M 0.50022 0.000293092 L 28.35525 0.000255952 " stroke="rgb(8.628845%, 34.118652%, 45.098877%)" stroke-width="1" stroke-opacity="1" stroke-miterlimit="4"/><path stroke-linecap="round" transform="matrix(-0.0297348, 3.762365, -3.749883, -0.0296362, 694.494235, 276.350809)" fill="none" stroke-linejoin="round" d="M -2.500289 -1.500509 L -0.50023 0.00034583 L -2.499498 1.499579 " stroke="rgb(8.628845%, 34.118652%, 45.098877%)" stroke-width="1" stroke-opacity="1" stroke-miterlimit="4"/><path stroke-linecap="round" transform="matrix(3.755824, 0, 0, 3.75, 596.831927, 498.397727)" fill="none" stroke-linejoin="miter" d="M 0.500293 0.000189404 L 25.660179 0.000189404 " stroke="rgb(8.628845%, 34.118652%, 45.098877%)" stroke-width="1" stroke-opacity="1" stroke-miterlimit="4"/><path stroke-linecap="round" transform="matrix(0.00000000000000023, -3.762483, 3.75, 0.00000000000000023, 697.234651, 501.672479)" fill="none" stroke-linejoin="miter" d="M 0.49954 -0.0000735863 L 28.355773 -0.0000735863 " stroke="rgb(8.628845%, 34.118652%, 45.098877%)" stroke-width="1" stroke-opacity="1" stroke-miterlimit="4"/><path stroke-linecap="round" transform="matrix(0.00000000000000023, -3.762483, 3.75, 0.00000000000000023, 697.234651, 392.162788)" fill="none" stroke-linejoin="round" d="M -2.50035 -1.500074 L -0.499718 -0.0000735863 L -2.50035 1.499926 " stroke="rgb(8.628845%, 34.118652%, 45.098877%)" stroke-width="1" stroke-opacity="1" stroke-miterlimit="4"/><g fill="rgb(100%, 100%, 100%)" fill-opacity="1"><g transform="translate(34.886336, 343.624575)"><g><path d="M 16.359375 -6.34375 C 16.359375 -4.28125 15.613281 -2.65625 14.125 -1.46875 C 12.644531 -0.28125 10.582031 0.3125 7.9375 0.3125 C 5.5 0.3125 3.34375 -0.144531 1.46875 -1.0625 L 1.46875 -5.5625 C 3.007812 -4.875 4.3125 -4.390625 5.375 -4.109375 C 6.445312 -3.828125 7.425781 -3.6875 8.3125 -3.6875 C 9.375 -3.6875 10.1875 -3.890625 10.75 -4.296875 C 11.320312 -4.703125 11.609375 -5.304688 11.609375 -6.109375 C 11.609375 -6.554688 11.484375 -6.953125 11.234375 -7.296875 C 10.984375 -7.648438 10.613281 -7.988281 10.125 -8.3125 C 9.644531 -8.632812 8.660156 -9.148438 7.171875 -9.859375 C 5.773438 -10.515625 4.726562 -11.144531 4.03125 -11.75 C 3.332031 -12.351562 2.773438 -13.054688 2.359375 -13.859375 C 1.941406 -14.660156 1.734375 -15.597656 1.734375 -16.671875 C 1.734375 -18.691406 2.414062 -20.28125 3.78125 -21.4375 C 5.15625 -22.59375 7.050781 -23.171875 9.46875 -23.171875 C 10.65625 -23.171875 11.785156 -23.03125 12.859375 -22.75 C 13.941406 -22.46875 15.070312 -22.070312 16.25 -21.5625 L 14.6875 -17.796875 C 13.46875 -18.296875 12.457031 -18.644531 11.65625 -18.84375 C 10.863281 -19.039062 10.082031 -19.140625 9.3125 -19.140625 C 8.394531 -19.140625 7.691406 -18.925781 7.203125 -18.5 C 6.710938 -18.070312 6.46875 -17.515625 6.46875 -16.828125 C 6.46875 -16.398438 6.566406 -16.023438 6.765625 -15.703125 C 6.960938 -15.390625 7.273438 -15.082031 7.703125 -14.78125 C 8.140625 -14.488281 9.164062 -13.957031 10.78125 -13.1875 C 12.914062 -12.164062 14.378906 -11.140625 15.171875 -10.109375 C 15.960938 -9.085938 16.359375 -7.832031 16.359375 -6.34375 Z M 16.359375 -6.34375 "/></g></g></g><g fill="rgb(100%, 100%, 100%)" fill-opacity="1"><g transform="translate(52.507033, 343.624575)"><g><path d="M 9.859375 -3.484375 C 10.691406 -3.484375 11.691406 -3.664062 12.859375 -4.03125 L 12.859375 -0.484375 C 11.671875 0.046875 10.210938 0.3125 8.484375 0.3125 C 6.578125 0.3125 5.1875 -0.164062 4.3125 -1.125 C 3.445312 -2.09375 3.015625 -3.539062 3.015625 -5.46875 L 3.015625 -13.890625 L 0.734375 -13.890625 L 0.734375 -15.90625 L 3.359375 -17.5 L 4.734375 -21.1875 L 7.78125 -21.1875 L 7.78125 -17.46875 L 12.671875 -17.46875 L 12.671875 -13.890625 L 7.78125 -13.890625 L 7.78125 -5.46875 C 7.78125 -4.789062 7.96875 -4.289062 8.34375 -3.96875 C 8.726562 -3.644531 9.234375 -3.484375 9.859375 -3.484375 Z M 9.859375 -3.484375 "/></g></g></g><g fill="rgb(100%, 100%, 100%)" fill-opacity="1"><g transform="translate(66.394266, 343.624575)"><g><path d="M 13.59375 0 L 12.671875 -2.375 L 12.546875 -2.375 C 11.742188 -1.363281 10.914062 -0.660156 10.0625 -0.265625 C 9.21875 0.117188 8.113281 0.3125 6.75 0.3125 C 5.070312 0.3125 3.75 -0.164062 2.78125 -1.125 C 1.820312 -2.082031 1.34375 -3.445312 1.34375 -5.21875 C 1.34375 -7.070312 1.988281 -8.4375 3.28125 -9.3125 C 4.582031 -10.195312 6.539062 -10.6875 9.15625 -10.78125 L 12.1875 -10.875 L 12.1875 -11.640625 C 12.1875 -13.410156 11.28125 -14.296875 9.46875 -14.296875 C 8.070312 -14.296875 6.429688 -13.875 4.546875 -13.03125 L 2.96875 -16.25 C 4.976562 -17.300781 7.207031 -17.828125 9.65625 -17.828125 C 12 -17.828125 13.796875 -17.316406 15.046875 -16.296875 C 16.296875 -15.273438 16.921875 -13.722656 16.921875 -11.640625 L 16.921875 0 Z M 12.1875 -8.09375 L 10.34375 -8.03125 C 8.957031 -7.988281 7.925781 -7.738281 7.25 -7.28125 C 6.570312 -6.820312 6.234375 -6.125 6.234375 -5.1875 C 6.234375 -3.84375 7.003906 -3.171875 8.546875 -3.171875 C 9.648438 -3.171875 10.53125 -3.488281 11.1875 -4.125 C 11.851562 -4.757812 12.1875 -5.601562 12.1875 -6.65625 Z M 12.1875 -8.09375 "/></g></g></g><g fill="rgb(100%, 100%, 100%)" fill-opacity="1"><g transform="translate(85.717672, 343.624575)"><g><path d="M 12.25 -17.796875 C 12.894531 -17.796875 13.429688 -17.75 13.859375 -17.65625 L 13.5 -13.1875 C 13.113281 -13.289062 12.644531 -13.34375 12.09375 -13.34375 C 10.570312 -13.34375 9.382812 -12.953125 8.53125 -12.171875 C 7.6875 -11.390625 7.265625 -10.296875 7.265625 -8.890625 L 7.265625 0 L 2.5 0 L 2.5 -17.46875 L 6.109375 -17.46875 L 6.8125 -14.53125 L 7.046875 -14.53125 C 7.585938 -15.507812 8.316406 -16.296875 9.234375 -16.890625 C 10.160156 -17.492188 11.164062 -17.796875 12.25 -17.796875 Z M 12.25 -17.796875 "/></g></g></g><g fill="rgb(100%, 100%, 100%)" fill-opacity="1"><g transform="translate(100.245374, 343.624575)"><g><path d="M 9.859375 -3.484375 C 10.691406 -3.484375 11.691406 -3.664062 12.859375 -4.03125 L 12.859375 -0.484375 C 11.671875 0.046875 10.210938 0.3125 8.484375 0.3125 C 6.578125 0.3125 5.1875 -0.164062 4.3125 -1.125 C 3.445312 -2.09375 3.015625 -3.539062 3.015625 -5.46875 L 3.015625 -13.890625 L 0.734375 -13.890625 L 0.734375 -15.90625 L 3.359375 -17.5 L 4.734375 -21.1875 L 7.78125 -21.1875 L 7.78125 -17.46875 L 12.671875 -17.46875 L 12.671875 -13.890625 L 7.78125 -13.890625 L 7.78125 -5.46875 C 7.78125 -4.789062 7.96875 -4.289062 8.34375 -3.96875 C 8.726562 -3.644531 9.234375 -3.484375 9.859375 -3.484375 Z M 9.859375 -3.484375 "/></g></g></g><g fill="rgb(100%, 100%, 100%)" fill-opacity="1"><g transform="translate(184.246941, 342.349547)"><g><path d="M 14.328125 -7.640625 C 14.328125 -5.171875 13.625 -3.28125 12.21875 -1.96875 C 10.8125 -0.65625 8.78125 0 6.125 0 L 1.890625 0 L 1.890625 -14.984375 L 6.59375 -14.984375 C 9.039062 -14.984375 10.941406 -14.335938 12.296875 -13.046875 C 13.648438 -11.753906 14.328125 -9.953125 14.328125 -7.640625 Z M 11.015625 -7.5625 C 11.015625 -10.78125 9.59375 -12.390625 6.75 -12.390625 L 5.0625 -12.390625 L 5.0625 -2.625 L 6.421875 -2.625 C 9.484375 -2.625 11.015625 -4.269531 11.015625 -7.5625 Z M 11.015625 -7.5625 "/></g></g><g transform="translate(199.791862, 342.349547)"><g><path d="M 6.390625 -9.453125 C 5.722656 -9.453125 5.203125 -9.238281 4.828125 -8.8125 C 4.453125 -8.394531 4.238281 -7.800781 4.1875 -7.03125 L 8.578125 -7.03125 C 8.554688 -7.800781 8.351562 -8.394531 7.96875 -8.8125 C 7.582031 -9.238281 7.054688 -9.453125 6.390625 -9.453125 Z M 6.828125 0.203125 C 4.984375 0.203125 3.539062 -0.300781 2.5 -1.3125 C 1.457031 -2.332031 0.9375 -3.78125 0.9375 -5.65625 C 0.9375 -7.570312 1.414062 -9.050781 2.375 -10.09375 C 3.34375 -11.144531 4.675781 -11.671875 6.375 -11.671875 C 7.988281 -11.671875 9.242188 -11.207031 10.140625 -10.28125 C 11.046875 -9.363281 11.5 -8.09375 11.5 -6.46875 L 11.5 -4.953125 L 4.109375 -4.953125 C 4.140625 -4.066406 4.398438 -3.375 4.890625 -2.875 C 5.390625 -2.375 6.082031 -2.125 6.96875 -2.125 C 7.664062 -2.125 8.320312 -2.191406 8.9375 -2.328125 C 9.550781 -2.472656 10.191406 -2.707031 10.859375 -3.03125 L 10.859375 -0.609375 C 10.304688 -0.328125 9.71875 -0.125 9.09375 0 C 8.476562 0.132812 7.722656 0.203125 6.828125 0.203125 Z M 6.828125 0.203125 "/></g></g><g transform="translate(212.199088, 342.349547)"><g><path d="M 6.296875 0.203125 C 2.722656 0.203125 0.9375 -1.753906 0.9375 -5.671875 C 0.9375 -7.617188 1.421875 -9.101562 2.390625 -10.125 C 3.367188 -11.15625 4.765625 -11.671875 6.578125 -11.671875 C 7.898438 -11.671875 9.085938 -11.414062 10.140625 -10.90625 L 9.21875 -8.484375 C 8.726562 -8.679688 8.269531 -8.84375 7.84375 -8.96875 C 7.414062 -9.09375 6.992188 -9.15625 6.578125 -9.15625 C 4.941406 -9.15625 4.125 -8 4.125 -5.6875 C 4.125 -3.445312 4.941406 -2.328125 6.578125 -2.328125 C 7.171875 -2.328125 7.722656 -2.40625 8.234375 -2.5625 C 8.753906 -2.726562 9.269531 -2.984375 9.78125 -3.328125 L 9.78125 -0.640625 C 9.28125 -0.328125 8.769531 -0.109375 8.25 0.015625 C 7.726562 0.140625 7.078125 0.203125 6.296875 0.203125 Z M 6.296875 0.203125 "/></g></g><g transform="translate(222.996451, 342.349547)"><g><path d="M 1.5 -14.421875 C 1.5 -15.441406 2.066406 -15.953125 3.203125 -15.953125 C 4.335938 -15.953125 4.90625 -15.441406 4.90625 -14.421875 C 4.90625 -13.941406 4.765625 -13.566406 4.484375 -13.296875 C 4.203125 -13.023438 3.773438 -12.890625 3.203125 -12.890625 C 2.066406 -12.890625 1.5 -13.398438 1.5 -14.421875 Z M 4.765625 0 L 1.640625 0 L 1.640625 -11.46875 L 4.765625 -11.46875 Z M 4.765625 0 "/></g></g><g transform="translate(229.405142, 342.349547)"><g><path d="M 9.640625 -3.40625 C 9.640625 -2.226562 9.226562 -1.332031 8.40625 -0.71875 C 7.59375 -0.101562 6.375 0.203125 4.75 0.203125 C 3.914062 0.203125 3.203125 0.144531 2.609375 0.03125 C 2.023438 -0.0820312 1.476562 -0.25 0.96875 -0.46875 L 0.96875 -3.046875 C 1.539062 -2.773438 2.191406 -2.546875 2.921875 -2.359375 C 3.648438 -2.171875 4.289062 -2.078125 4.84375 -2.078125 C 5.976562 -2.078125 6.546875 -2.40625 6.546875 -3.0625 C 6.546875 -3.3125 6.46875 -3.507812 6.3125 -3.65625 C 6.164062 -3.8125 5.910156 -3.988281 5.546875 -4.1875 C 5.179688 -4.382812 4.691406 -4.613281 4.078125 -4.875 C 3.191406 -5.238281 2.539062 -5.578125 2.125 -5.890625 C 1.707031 -6.210938 1.40625 -6.578125 1.21875 -6.984375 C 1.03125 -7.390625 0.9375 -7.890625 0.9375 -8.484375 C 0.9375 -9.503906 1.332031 -10.289062 2.125 -10.84375 C 2.914062 -11.394531 4.035156 -11.671875 5.484375 -11.671875 C 6.867188 -11.671875 8.210938 -11.375 9.515625 -10.78125 L 8.578125 -8.515625 C 8.003906 -8.765625 7.46875 -8.96875 6.96875 -9.125 C 6.46875 -9.28125 5.957031 -9.359375 5.4375 -9.359375 C 4.507812 -9.359375 4.046875 -9.109375 4.046875 -8.609375 C 4.046875 -8.328125 4.191406 -8.082031 4.484375 -7.875 C 4.785156 -7.675781 5.441406 -7.375 6.453125 -6.96875 C 7.347656 -6.601562 8.003906 -6.265625 8.421875 -5.953125 C 8.835938 -5.640625 9.144531 -5.273438 9.34375 -4.859375 C 9.539062 -4.453125 9.640625 -3.96875 9.640625 -3.40625 Z M 9.640625 -3.40625 "/></g></g><g transform="translate(239.843619, 342.349547)"><g><path d="M 1.5 -14.421875 C 1.5 -15.441406 2.066406 -15.953125 3.203125 -15.953125 C 4.335938 -15.953125 4.90625 -15.441406 4.90625 -14.421875 C 4.90625 -13.941406 4.765625 -13.566406 4.484375 -13.296875 C 4.203125 -13.023438 3.773438 -12.890625 3.203125 -12.890625 C 2.066406 -12.890625 1.5 -13.398438 1.5 -14.421875 Z M 4.765625 0 L 1.640625 0 L 1.640625 -11.46875 L 4.765625 -11.46875 Z M 4.765625 0 "/></g></g><g transform="translate(246.25231, 342.349547)"><g><path d="M 4.125 -5.75 C 4.125 -4.613281 4.3125 -3.753906 4.6875 -3.171875 C 5.0625 -2.597656 5.671875 -2.3125 6.515625 -2.3125 C 7.347656 -2.3125 7.945312 -2.597656 8.3125 -3.171875 C 8.675781 -3.753906 8.859375 -4.613281 8.859375 -5.75 C 8.859375 -6.882812 8.671875 -7.734375 8.296875 -8.296875 C 7.929688 -8.867188 7.328125 -9.15625 6.484375 -9.15625 C 5.648438 -9.15625 5.046875 -8.875 4.671875 -8.3125 C 4.304688 -7.75 4.125 -6.894531 4.125 -5.75 Z M 12.0625 -5.75 C 12.0625 -3.882812 11.566406 -2.425781 10.578125 -1.375 C 9.597656 -0.320312 8.226562 0.203125 6.46875 0.203125 C 5.363281 0.203125 4.390625 -0.0351562 3.546875 -0.515625 C 2.710938 -0.992188 2.066406 -1.6875 1.609375 -2.59375 C 1.160156 -3.5 0.9375 -4.550781 0.9375 -5.75 C 0.9375 -7.625 1.425781 -9.078125 2.40625 -10.109375 C 3.382812 -11.148438 4.757812 -11.671875 6.53125 -11.671875 C 7.632812 -11.671875 8.601562 -11.429688 9.4375 -10.953125 C 10.28125 -10.484375 10.925781 -9.800781 11.375 -8.90625 C 11.832031 -8.007812 12.0625 -6.957031 12.0625 -5.75 Z M 12.0625 -5.75 "/></g></g><g transform="translate(259.254262, 342.349547)"><g><path d="M 12.21875 0 L 9.09375 0 L 9.09375 -6.703125 C 9.09375 -7.523438 8.945312 -8.140625 8.65625 -8.546875 C 8.363281 -8.960938 7.894531 -9.171875 7.25 -9.171875 C 6.375 -9.171875 5.738281 -8.878906 5.34375 -8.296875 C 4.957031 -7.710938 4.765625 -6.742188 4.765625 -5.390625 L 4.765625 0 L 1.640625 0 L 1.640625 -11.46875 L 4.03125 -11.46875 L 4.453125 -10 L 4.625 -10 C 4.96875 -10.550781 5.445312 -10.96875 6.0625 -11.25 C 6.675781 -11.53125 7.375 -11.671875 8.15625 -11.671875 C 9.488281 -11.671875 10.5 -11.3125 11.1875 -10.59375 C 11.875 -9.875 12.21875 -8.832031 12.21875 -7.46875 Z M 12.21875 0 "/></g></g></g><g fill="rgb(100%, 100%, 100%)" fill-opacity="1"><g transform="translate(432.55051, 342.349547)"><g><path d="M 10.515625 0 L 1.890625 0 L 1.890625 -14.984375 L 10.515625 -14.984375 L 10.515625 -12.390625 L 5.0625 -12.390625 L 5.0625 -9.09375 L 10.140625 -9.09375 L 10.140625 -6.484375 L 5.0625 -6.484375 L 5.0625 -2.625 L 10.515625 -2.625 Z M 10.515625 0 "/></g></g><g transform="translate(444.31174, 342.349547)"><g><path d="M 4.375 0 L 0 -11.46875 L 3.265625 -11.46875 L 5.484375 -4.9375 C 5.734375 -4.101562 5.890625 -3.316406 5.953125 -2.578125 L 6.015625 -2.578125 C 6.046875 -3.234375 6.195312 -4.019531 6.46875 -4.9375 L 8.671875 -11.46875 L 11.953125 -11.46875 L 7.578125 0 Z M 4.375 0 "/></g></g><g transform="translate(456.257541, 342.349547)"><g><path d="M 6.390625 -9.453125 C 5.722656 -9.453125 5.203125 -9.238281 4.828125 -8.8125 C 4.453125 -8.394531 4.238281 -7.800781 4.1875 -7.03125 L 8.578125 -7.03125 C 8.554688 -7.800781 8.351562 -8.394531 7.96875 -8.8125 C 7.582031 -9.238281 7.054688 -9.453125 6.390625 -9.453125 Z M 6.828125 0.203125 C 4.984375 0.203125 3.539062 -0.300781 2.5 -1.3125 C 1.457031 -2.332031 0.9375 -3.78125 0.9375 -5.65625 C 0.9375 -7.570312 1.414062 -9.050781 2.375 -10.09375 C 3.34375 -11.144531 4.675781 -11.671875 6.375 -11.671875 C 7.988281 -11.671875 9.242188 -11.207031 10.140625 -10.28125 C 11.046875 -9.363281 11.5 -8.09375 11.5 -6.46875 L 11.5 -4.953125 L 4.109375 -4.953125 C 4.140625 -4.066406 4.398438 -3.375 4.890625 -2.875 C 5.390625 -2.375 6.082031 -2.125 6.96875 -2.125 C 7.664062 -2.125 8.320312 -2.191406 8.9375 -2.328125 C 9.550781 -2.472656 10.191406 -2.707031 10.859375 -3.03125 L 10.859375 -0.609375 C 10.304688 -0.328125 9.71875 -0.125 9.09375 0 C 8.476562 0.132812 7.722656 0.203125 6.828125 0.203125 Z M 6.828125 0.203125 "/></g></g><g transform="translate(468.664767, 342.349547)"><g><path d="M 12.21875 0 L 9.09375 0 L 9.09375 -6.703125 C 9.09375 -7.523438 8.945312 -8.140625 8.65625 -8.546875 C 8.363281 -8.960938 7.894531 -9.171875 7.25 -9.171875 C 6.375 -9.171875 5.738281 -8.878906 5.34375 -8.296875 C 4.957031 -7.710938 4.765625 -6.742188 4.765625 -5.390625 L 4.765625 0 L 1.640625 0 L 1.640625 -11.46875 L 4.03125 -11.46875 L 4.453125 -10 L 4.625 -10 C 4.96875 -10.550781 5.445312 -10.96875 6.0625 -11.25 C 6.675781 -11.53125 7.375 -11.671875 8.15625 -11.671875 C 9.488281 -11.671875 10.5 -11.3125 11.1875 -10.59375 C 11.875 -9.875 12.21875 -8.832031 12.21875 -7.46875 Z M 12.21875 0 "/></g></g><g transform="translate(482.466524, 342.349547)"><g><path d="M 6.46875 -2.28125 C 7.019531 -2.28125 7.675781 -2.398438 8.4375 -2.640625 L 8.4375 -0.3125 C 7.65625 0.03125 6.695312 0.203125 5.5625 0.203125 C 4.3125 0.203125 3.398438 -0.109375 2.828125 -0.734375 C 2.265625 -1.367188 1.984375 -2.320312 1.984375 -3.59375 L 1.984375 -9.109375 L 0.484375 -9.109375 L 0.484375 -10.4375 L 2.203125 -11.484375 L 3.109375 -13.90625 L 5.109375 -13.90625 L 5.109375 -11.46875 L 8.3125 -11.46875 L 8.3125 -9.109375 L 5.109375 -9.109375 L 5.109375 -3.59375 C 5.109375 -3.144531 5.234375 -2.8125 5.484375 -2.59375 C 5.734375 -2.382812 6.0625 -2.28125 6.46875 -2.28125 Z M 6.46875 -2.28125 "/></g></g></g><g fill="rgb(100%, 100%, 100%)" fill-opacity="1"><g transform="translate(425.90588, 178.91474)"><g><path d="M 10.734375 -4.15625 C 10.734375 -2.8125 10.242188 -1.75 9.265625 -0.96875 C 8.296875 -0.1875 6.941406 0.203125 5.203125 0.203125 C 3.609375 0.203125 2.195312 -0.0976562 0.96875 -0.703125 L 0.96875 -3.65625 C 1.976562 -3.195312 2.832031 -2.875 3.53125 -2.6875 C 4.226562 -2.507812 4.867188 -2.421875 5.453125 -2.421875 C 6.148438 -2.421875 6.6875 -2.550781 7.0625 -2.8125 C 7.4375 -3.082031 7.625 -3.484375 7.625 -4.015625 C 7.625 -4.304688 7.539062 -4.566406 7.375 -4.796875 C 7.207031 -5.023438 6.960938 -5.242188 6.640625 -5.453125 C 6.328125 -5.660156 5.679688 -6 4.703125 -6.46875 C 3.785156 -6.894531 3.097656 -7.304688 2.640625 -7.703125 C 2.179688 -8.109375 1.816406 -8.570312 1.546875 -9.09375 C 1.273438 -9.625 1.140625 -10.238281 1.140625 -10.9375 C 1.140625 -12.269531 1.585938 -13.3125 2.484375 -14.0625 C 3.378906 -14.820312 4.625 -15.203125 6.21875 -15.203125 C 7 -15.203125 7.738281 -15.109375 8.4375 -14.921875 C 9.144531 -14.742188 9.890625 -14.488281 10.671875 -14.15625 L 9.640625 -11.671875 C 8.835938 -12.003906 8.175781 -12.234375 7.65625 -12.359375 C 7.132812 -12.492188 6.617188 -12.5625 6.109375 -12.5625 C 5.503906 -12.5625 5.039062 -12.421875 4.71875 -12.140625 C 4.40625 -11.859375 4.25 -11.492188 4.25 -11.046875 C 4.25 -10.765625 4.3125 -10.519531 4.4375 -10.3125 C 4.570312 -10.101562 4.78125 -9.898438 5.0625 -9.703125 C 5.34375 -9.503906 6.015625 -9.15625 7.078125 -8.65625 C 8.472656 -7.988281 9.429688 -7.316406 9.953125 -6.640625 C 10.472656 -5.960938 10.734375 -5.132812 10.734375 -4.15625 Z M 10.734375 -4.15625 "/></g></g><g transform="translate(437.472286, 178.91474)"><g><path d="M 6.46875 -2.28125 C 7.019531 -2.28125 7.675781 -2.398438 8.4375 -2.640625 L 8.4375 -0.3125 C 7.65625 0.03125 6.695312 0.203125 5.5625 0.203125 C 4.3125 0.203125 3.398438 -0.109375 2.828125 -0.734375 C 2.265625 -1.367188 1.984375 -2.320312 1.984375 -3.59375 L 1.984375 -9.109375 L 0.484375 -9.109375 L 0.484375 -10.4375 L 2.203125 -11.484375 L 3.109375 -13.90625 L 5.109375 -13.90625 L 5.109375 -11.46875 L 8.3125 -11.46875 L 8.3125 -9.109375 L 5.109375 -9.109375 L 5.109375 -3.59375 C 5.109375 -3.144531 5.234375 -2.8125 5.484375 -2.59375 C 5.734375 -2.382812 6.0625 -2.28125 6.46875 -2.28125 Z M 6.46875 -2.28125 "/></g></g><g transform="translate(446.588008, 178.91474)"><g><path d="M 8.921875 0 L 8.3125 -1.5625 L 8.234375 -1.5625 C 7.703125 -0.894531 7.15625 -0.429688 6.59375 -0.171875 C 6.039062 0.078125 5.320312 0.203125 4.4375 0.203125 C 3.332031 0.203125 2.460938 -0.109375 1.828125 -0.734375 C 1.191406 -1.367188 0.875 -2.265625 0.875 -3.421875 C 0.875 -4.640625 1.300781 -5.535156 2.15625 -6.109375 C 3.007812 -6.691406 4.296875 -7.015625 6.015625 -7.078125 L 8 -7.140625 L 8 -7.640625 C 8 -8.796875 7.40625 -9.375 6.21875 -9.375 C 5.300781 -9.375 4.222656 -9.097656 2.984375 -8.546875 L 1.953125 -10.671875 C 3.265625 -11.359375 4.726562 -11.703125 6.34375 -11.703125 C 7.875 -11.703125 9.050781 -11.363281 9.875 -10.6875 C 10.695312 -10.019531 11.109375 -9.003906 11.109375 -7.640625 L 11.109375 0 Z M 8 -5.3125 L 6.78125 -5.265625 C 5.875 -5.242188 5.195312 -5.082031 4.75 -4.78125 C 4.3125 -4.476562 4.09375 -4.019531 4.09375 -3.40625 C 4.09375 -2.519531 4.597656 -2.078125 5.609375 -2.078125 C 6.335938 -2.078125 6.914062 -2.285156 7.34375 -2.703125 C 7.78125 -3.117188 8 -3.675781 8 -4.375 Z M 8 -5.3125 "/></g></g><g transform="translate(459.27209, 178.91474)"><g><path d="M 6.46875 -2.28125 C 7.019531 -2.28125 7.675781 -2.398438 8.4375 -2.640625 L 8.4375 -0.3125 C 7.65625 0.03125 6.695312 0.203125 5.5625 0.203125 C 4.3125 0.203125 3.398438 -0.109375 2.828125 -0.734375 C 2.265625 -1.367188 1.984375 -2.320312 1.984375 -3.59375 L 1.984375 -9.109375 L 0.484375 -9.109375 L 0.484375 -10.4375 L 2.203125 -11.484375 L 3.109375 -13.90625 L 5.109375 -13.90625 L 5.109375 -11.46875 L 8.3125 -11.46875 L 8.3125 -9.109375 L 5.109375 -9.109375 L 5.109375 -3.59375 C 5.109375 -3.144531 5.234375 -2.8125 5.484375 -2.59375 C 5.734375 -2.382812 6.0625 -2.28125 6.46875 -2.28125 Z M 6.46875 -2.28125 "/></g></g><g transform="translate(468.387812, 178.91474)"><g><path d="M 6.390625 -9.453125 C 5.722656 -9.453125 5.203125 -9.238281 4.828125 -8.8125 C 4.453125 -8.394531 4.238281 -7.800781 4.1875 -7.03125 L 8.578125 -7.03125 C 8.554688 -7.800781 8.351562 -8.394531 7.96875 -8.8125 C 7.582031 -9.238281 7.054688 -9.453125 6.390625 -9.453125 Z M 6.828125 0.203125 C 4.984375 0.203125 3.539062 -0.300781 2.5 -1.3125 C 1.457031 -2.332031 0.9375 -3.78125 0.9375 -5.65625 C 0.9375 -7.570312 1.414062 -9.050781 2.375 -10.09375 C 3.34375 -11.144531 4.675781 -11.671875 6.375 -11.671875 C 7.988281 -11.671875 9.242188 -11.207031 10.140625 -10.28125 C 11.046875 -9.363281 11.5 -8.09375 11.5 -6.46875 L 11.5 -4.953125 L 4.109375 -4.953125 C 4.140625 -4.066406 4.398438 -3.375 4.890625 -2.875 C 5.390625 -2.375 6.082031 -2.125 6.96875 -2.125 C 7.664062 -2.125 8.320312 -2.191406 8.9375 -2.328125 C 9.550781 -2.472656 10.191406 -2.707031 10.859375 -3.03125 L 10.859375 -0.609375 C 10.304688 -0.328125 9.71875 -0.125 9.09375 0 C 8.476562 0.132812 7.722656 0.203125 6.828125 0.203125 Z M 6.828125 0.203125 "/></g></g><g transform="translate(480.795038, 178.91474)"><g/></g><g transform="translate(486.250116, 178.91474)"><g><path d="M 8.671875 0 L 5.5 0 L 5.5 -8.671875 L 5.53125 -10.09375 L 5.59375 -11.65625 C 5.0625 -11.132812 4.691406 -10.789062 4.484375 -10.625 L 2.765625 -9.234375 L 1.234375 -11.140625 L 6.078125 -14.984375 L 8.671875 -14.984375 Z M 8.671875 0 "/></g></g></g><g fill="rgb(100%, 100%, 100%)" fill-opacity="1"><g transform="translate(425.90588, 502.034423)"><g><path d="M 10.734375 -4.15625 C 10.734375 -2.8125 10.242188 -1.75 9.265625 -0.96875 C 8.296875 -0.1875 6.941406 0.203125 5.203125 0.203125 C 3.609375 0.203125 2.195312 -0.0976562 0.96875 -0.703125 L 0.96875 -3.65625 C 1.976562 -3.195312 2.832031 -2.875 3.53125 -2.6875 C 4.226562 -2.507812 4.867188 -2.421875 5.453125 -2.421875 C 6.148438 -2.421875 6.6875 -2.550781 7.0625 -2.8125 C 7.4375 -3.082031 7.625 -3.484375 7.625 -4.015625 C 7.625 -4.304688 7.539062 -4.566406 7.375 -4.796875 C 7.207031 -5.023438 6.960938 -5.242188 6.640625 -5.453125 C 6.328125 -5.660156 5.679688 -6 4.703125 -6.46875 C 3.785156 -6.894531 3.097656 -7.304688 2.640625 -7.703125 C 2.179688 -8.109375 1.816406 -8.570312 1.546875 -9.09375 C 1.273438 -9.625 1.140625 -10.238281 1.140625 -10.9375 C 1.140625 -12.269531 1.585938 -13.3125 2.484375 -14.0625 C 3.378906 -14.820312 4.625 -15.203125 6.21875 -15.203125 C 7 -15.203125 7.738281 -15.109375 8.4375 -14.921875 C 9.144531 -14.742188 9.890625 -14.488281 10.671875 -14.15625 L 9.640625 -11.671875 C 8.835938 -12.003906 8.175781 -12.234375 7.65625 -12.359375 C 7.132812 -12.492188 6.617188 -12.5625 6.109375 -12.5625 C 5.503906 -12.5625 5.039062 -12.421875 4.71875 -12.140625 C 4.40625 -11.859375 4.25 -11.492188 4.25 -11.046875 C 4.25 -10.765625 4.3125 -10.519531 4.4375 -10.3125 C 4.570312 -10.101562 4.78125 -9.898438 5.0625 -9.703125 C 5.34375 -9.503906 6.015625 -9.15625 7.078125 -8.65625 C 8.472656 -7.988281 9.429688 -7.316406 9.953125 -6.640625 C 10.472656 -5.960938 10.734375 -5.132812 10.734375 -4.15625 Z M 10.734375 -4.15625 "/></g></g><g transform="translate(437.472286, 502.034423)"><g><path d="M 6.46875 -2.28125 C 7.019531 -2.28125 7.675781 -2.398438 8.4375 -2.640625 L 8.4375 -0.3125 C 7.65625 0.03125 6.695312 0.203125 5.5625 0.203125 C 4.3125 0.203125 3.398438 -0.109375 2.828125 -0.734375 C 2.265625 -1.367188 1.984375 -2.320312 1.984375 -3.59375 L 1.984375 -9.109375 L 0.484375 -9.109375 L 0.484375 -10.4375 L 2.203125 -11.484375 L 3.109375 -13.90625 L 5.109375 -13.90625 L 5.109375 -11.46875 L 8.3125 -11.46875 L 8.3125 -9.109375 L 5.109375 -9.109375 L 5.109375 -3.59375 C 5.109375 -3.144531 5.234375 -2.8125 5.484375 -2.59375 C 5.734375 -2.382812 6.0625 -2.28125 6.46875 -2.28125 Z M 6.46875 -2.28125 "/></g></g><g transform="translate(446.588008, 502.034423)"><g><path d="M 8.921875 0 L 8.3125 -1.5625 L 8.234375 -1.5625 C 7.703125 -0.894531 7.15625 -0.429688 6.59375 -0.171875 C 6.039062 0.078125 5.320312 0.203125 4.4375 0.203125 C 3.332031 0.203125 2.460938 -0.109375 1.828125 -0.734375 C 1.191406 -1.367188 0.875 -2.265625 0.875 -3.421875 C 0.875 -4.640625 1.300781 -5.535156 2.15625 -6.109375 C 3.007812 -6.691406 4.296875 -7.015625 6.015625 -7.078125 L 8 -7.140625 L 8 -7.640625 C 8 -8.796875 7.40625 -9.375 6.21875 -9.375 C 5.300781 -9.375 4.222656 -9.097656 2.984375 -8.546875 L 1.953125 -10.671875 C 3.265625 -11.359375 4.726562 -11.703125 6.34375 -11.703125 C 7.875 -11.703125 9.050781 -11.363281 9.875 -10.6875 C 10.695312 -10.019531 11.109375 -9.003906 11.109375 -7.640625 L 11.109375 0 Z M 8 -5.3125 L 6.78125 -5.265625 C 5.875 -5.242188 5.195312 -5.082031 4.75 -4.78125 C 4.3125 -4.476562 4.09375 -4.019531 4.09375 -3.40625 C 4.09375 -2.519531 4.597656 -2.078125 5.609375 -2.078125 C 6.335938 -2.078125 6.914062 -2.285156 7.34375 -2.703125 C 7.78125 -3.117188 8 -3.675781 8 -4.375 Z M 8 -5.3125 "/></g></g><g transform="translate(459.27209, 502.034423)"><g><path d="M 6.46875 -2.28125 C 7.019531 -2.28125 7.675781 -2.398438 8.4375 -2.640625 L 8.4375 -0.3125 C 7.65625 0.03125 6.695312 0.203125 5.5625 0.203125 C 4.3125 0.203125 3.398438 -0.109375 2.828125 -0.734375 C 2.265625 -1.367188 1.984375 -2.320312 1.984375 -3.59375 L 1.984375 -9.109375 L 0.484375 -9.109375 L 0.484375 -10.4375 L 2.203125 -11.484375 L 3.109375 -13.90625 L 5.109375 -13.90625 L 5.109375 -11.46875 L 8.3125 -11.46875 L 8.3125 -9.109375 L 5.109375 -9.109375 L 5.109375 -3.59375 C 5.109375 -3.144531 5.234375 -2.8125 5.484375 -2.59375 C 5.734375 -2.382812 6.0625 -2.28125 6.46875 -2.28125 Z M 6.46875 -2.28125 "/></g></g><g transform="translate(468.387812, 502.034423)"><g><path d="M 6.390625 -9.453125 C 5.722656 -9.453125 5.203125 -9.238281 4.828125 -8.8125 C 4.453125 -8.394531 4.238281 -7.800781 4.1875 -7.03125 L 8.578125 -7.03125 C 8.554688 -7.800781 8.351562 -8.394531 7.96875 -8.8125 C 7.582031 -9.238281 7.054688 -9.453125 6.390625 -9.453125 Z M 6.828125 0.203125 C 4.984375 0.203125 3.539062 -0.300781 2.5 -1.3125 C 1.457031 -2.332031 0.9375 -3.78125 0.9375 -5.65625 C 0.9375 -7.570312 1.414062 -9.050781 2.375 -10.09375 C 3.34375 -11.144531 4.675781 -11.671875 6.375 -11.671875 C 7.988281 -11.671875 9.242188 -11.207031 10.140625 -10.28125 C 11.046875 -9.363281 11.5 -8.09375 11.5 -6.46875 L 11.5 -4.953125 L 4.109375 -4.953125 C 4.140625 -4.066406 4.398438 -3.375 4.890625 -2.875 C 5.390625 -2.375 6.082031 -2.125 6.96875 -2.125 C 7.664062 -2.125 8.320312 -2.191406 8.9375 -2.328125 C 9.550781 -2.472656 10.191406 -2.707031 10.859375 -3.03125 L 10.859375 -0.609375 C 10.304688 -0.328125 9.71875 -0.125 9.09375 0 C 8.476562 0.132812 7.722656 0.203125 6.828125 0.203125 Z M 6.828125 0.203125 "/></g></g><g transform="translate(480.795038, 502.034423)"><g/></g><g transform="translate(486.250116, 502.034423)"><g><path d="M 11.328125 0 L 0.84375 0 L 0.84375 -2.203125 L 4.609375 -6.015625 C 5.722656 -7.148438 6.445312 -7.9375 6.78125 -8.375 C 7.125 -8.820312 7.367188 -9.234375 7.515625 -9.609375 C 7.671875 -9.984375 7.75 -10.375 7.75 -10.78125 C 7.75 -11.375 7.582031 -11.816406 7.25 -12.109375 C 6.914062 -12.410156 6.472656 -12.5625 5.921875 -12.5625 C 5.347656 -12.5625 4.785156 -12.425781 4.234375 -12.15625 C 3.691406 -11.894531 3.117188 -11.515625 2.515625 -11.015625 L 0.796875 -13.0625 C 1.535156 -13.6875 2.144531 -14.128906 2.625 -14.390625 C 3.113281 -14.648438 3.644531 -14.847656 4.21875 -14.984375 C 4.800781 -15.128906 5.445312 -15.203125 6.15625 -15.203125 C 7.09375 -15.203125 7.914062 -15.03125 8.625 -14.6875 C 9.34375 -14.351562 9.898438 -13.875 10.296875 -13.25 C 10.703125 -12.632812 10.90625 -11.929688 10.90625 -11.140625 C 10.90625 -10.453125 10.78125 -9.804688 10.53125 -9.203125 C 10.289062 -8.597656 9.914062 -7.976562 9.40625 -7.34375 C 8.894531 -6.707031 8 -5.800781 6.71875 -4.625 L 4.78125 -2.8125 L 4.78125 -2.671875 L 11.328125 -2.671875 Z M 11.328125 0 "/></g></g></g><g fill="rgb(100%, 100%, 100%)" fill-opacity="1"><g transform="translate(675.499648, 344.224546)"><g><path d="M 10.515625 0 L 1.890625 0 L 1.890625 -14.984375 L 10.515625 -14.984375 L 10.515625 -12.390625 L 5.0625 -12.390625 L 5.0625 -9.09375 L 10.140625 -9.09375 L 10.140625 -6.484375 L 5.0625 -6.484375 L 5.0625 -2.625 L 10.515625 -2.625 Z M 10.515625 0 "/></g></g><g transform="translate(687.260878, 344.224546)"><g><path d="M 12.21875 0 L 9.09375 0 L 9.09375 -6.703125 C 9.09375 -7.523438 8.945312 -8.140625 8.65625 -8.546875 C 8.363281 -8.960938 7.894531 -9.171875 7.25 -9.171875 C 6.375 -9.171875 5.738281 -8.878906 5.34375 -8.296875 C 4.957031 -7.710938 4.765625 -6.742188 4.765625 -5.390625 L 4.765625 0 L 1.640625 0 L 1.640625 -11.46875 L 4.03125 -11.46875 L 4.453125 -10 L 4.625 -10 C 4.96875 -10.550781 5.445312 -10.96875 6.0625 -11.25 C 6.675781 -11.53125 7.375 -11.671875 8.15625 -11.671875 C 9.488281 -11.671875 10.5 -11.3125 11.1875 -10.59375 C 11.875 -9.875 12.21875 -8.832031 12.21875 -7.46875 Z M 12.21875 0 "/></g></g><g transform="translate(701.062635, 344.224546)"><g><path d="M 5.265625 0.203125 C 3.921875 0.203125 2.863281 -0.316406 2.09375 -1.359375 C 1.320312 -2.410156 0.9375 -3.863281 0.9375 -5.71875 C 0.9375 -7.59375 1.328125 -9.050781 2.109375 -10.09375 C 2.898438 -11.144531 3.984375 -11.671875 5.359375 -11.671875 C 6.796875 -11.671875 7.894531 -11.113281 8.65625 -10 L 8.75 -10 C 8.59375 -10.851562 8.515625 -11.613281 8.515625 -12.28125 L 8.515625 -15.953125 L 11.65625 -15.953125 L 11.65625 0 L 9.265625 0 L 8.65625 -1.484375 L 8.515625 -1.484375 C 7.804688 -0.359375 6.722656 0.203125 5.265625 0.203125 Z M 6.375 -2.28125 C 7.164062 -2.28125 7.75 -2.515625 8.125 -2.984375 C 8.5 -3.453125 8.703125 -4.242188 8.734375 -5.359375 L 8.734375 -5.6875 C 8.734375 -6.914062 8.539062 -7.796875 8.15625 -8.328125 C 7.78125 -8.867188 7.164062 -9.140625 6.3125 -9.140625 C 5.613281 -9.140625 5.070312 -8.84375 4.6875 -8.25 C 4.300781 -7.65625 4.109375 -6.796875 4.109375 -5.671875 C 4.109375 -4.546875 4.300781 -3.695312 4.6875 -3.125 C 5.082031 -2.5625 5.644531 -2.28125 6.375 -2.28125 Z M 6.375 -2.28125 "/></g></g></g><path stroke-linecap="round" transform="matrix(0.00000000000000023, -3.754844, 3.75, 0.00000000000000023, 463.946765, 292.270349)" fill="none" stroke-linejoin="miter" d="M 0.499573 -0.000387245 L 21.023063 -0.000387245 " stroke="rgb(8.628845%, 34.118652%, 45.098877%)" stroke-width="1" stroke-opacity="1" stroke-miterlimit="4"/><path stroke-linecap="round" transform="matrix(0.00000000000000023, -3.754844, 3.75, 0.00000000000000023, 463.946765, 210.516047)" fill="none" stroke-linejoin="round" d="M -2.499783 -1.500387 L -0.500283 -0.000387245 L -2.499783 1.499613 " stroke="rgb(8.628845%, 34.118652%, 45.098877%)" stroke-width="1" stroke-opacity="1" stroke-miterlimit="4"/><path stroke-linecap="round" transform="matrix(0.000000000000001904, 3.767547, -3.75, 0.000000000000001895, 459.958493, 379.784037)" fill="none" stroke-linejoin="miter" d="M 0.500042 0.000389756 L 19.95588 0.000389756 " stroke="rgb(8.628845%, 34.118652%, 45.098877%)" stroke-width="1" stroke-opacity="1" stroke-miterlimit="4"/><path stroke-linecap="round" transform="matrix(0.000000000000001904, 3.767547, -3.75, 0.000000000000001895, 459.958493, 457.794841)" fill="none" stroke-linejoin="round" d="M -2.500258 -1.49961 L -0.500242 0.000389756 L -2.500258 1.50039 " stroke="rgb(8.628845%, 34.118652%, 45.098877%)" stroke-width="1" stroke-opacity="1" stroke-miterlimit="4"/><g fill="rgb(8.628845%, 34.118652%, 45.098877%)" fill-opacity="1"><g transform="translate(11.243214, 52.58156)"><g><path d="M 12.046875 0 L 3.484375 0 L 3.484375 -32.1875 L 22.5 -32.1875 L 22.5 -25.21875 L 12.046875 -25.21875 L 12.046875 -19.0625 L 21.6875 -19.0625 L 21.6875 -12.09375 L 12.046875 -12.09375 Z M 12.046875 0 "/></g></g></g><g fill="rgb(8.628845%, 34.118652%, 45.098877%)" fill-opacity="1"><g transform="translate(35.55074, 52.58156)"><g><path d="M 11.578125 0 L 2.96875 0 L 2.96875 -34.265625 L 11.578125 -34.265625 Z M 11.578125 0 "/></g></g></g><g fill="rgb(8.628845%, 34.118652%, 45.098877%)" fill-opacity="1"><g transform="translate(50.126448, 52.58156)"><g><path d="M 26.796875 -12.53125 C 26.796875 -8.445312 25.695312 -5.265625 23.5 -2.984375 C 21.3125 -0.703125 18.242188 0.4375 14.296875 0.4375 C 10.503906 0.4375 7.488281 -0.726562 5.25 -3.0625 C 3.007812 -5.394531 1.890625 -8.550781 1.890625 -12.53125 C 1.890625 -16.59375 2.988281 -19.75 5.1875 -22 C 7.382812 -24.257812 10.460938 -25.390625 14.421875 -25.390625 C 16.867188 -25.390625 19.03125 -24.867188 20.90625 -23.828125 C 22.789062 -22.785156 24.242188 -21.289062 25.265625 -19.34375 C 26.285156 -17.394531 26.796875 -15.125 26.796875 -12.53125 Z M 10.640625 -12.53125 C 10.640625 -10.382812 10.925781 -8.75 11.5 -7.625 C 12.070312 -6.5 13.03125 -5.9375 14.375 -5.9375 C 15.707031 -5.9375 16.648438 -6.5 17.203125 -7.625 C 17.753906 -8.75 18.03125 -10.382812 18.03125 -12.53125 C 18.03125 -14.65625 17.75 -16.257812 17.1875 -17.34375 C 16.632812 -18.4375 15.679688 -18.984375 14.328125 -18.984375 C 13.015625 -18.984375 12.070312 -18.441406 11.5 -17.359375 C 10.925781 -16.285156 10.640625 -14.675781 10.640625 -12.53125 Z M 10.640625 -12.53125 "/></g></g></g><g fill="rgb(8.628845%, 34.118652%, 45.098877%)" fill-opacity="1"><g transform="translate(78.859534, 52.58156)"><g><path d="M 24.4375 0 L 21.625 -11.890625 L 20.96875 -15.484375 L 20.515625 -18.359375 L 20.390625 -18.359375 C 19.671875 -14.253906 19.1875 -11.664062 18.9375 -10.59375 L 16.40625 0 L 7.359375 0 L 0.546875 -24.953125 L 9.03125 -24.953125 L 11.046875 -15.375 C 11.691406 -12.082031 12.066406 -9.347656 12.171875 -7.171875 L 12.3125 -7.171875 C 12.351562 -8.523438 12.753906 -11.097656 13.515625 -14.890625 L 15.828125 -24.953125 L 25.34375 -24.953125 L 27.453125 -14.75 C 28.128906 -11.507812 28.554688 -8.984375 28.734375 -7.171875 L 28.859375 -7.171875 C 28.953125 -8.285156 29.097656 -9.675781 29.296875 -11.34375 C 29.503906 -13.007812 29.734375 -14.351562 29.984375 -15.375 L 32.1875 -24.953125 L 40.484375 -24.953125 L 33.640625 0 Z M 24.4375 0 "/></g></g></g><g fill="rgb(8.628845%, 34.118652%, 45.098877%)" fill-opacity="1"><g transform="translate(119.900502, 52.58156)"><g/></g></g><g fill="rgb(8.628845%, 34.118652%, 45.098877%)" fill-opacity="1"><g transform="translate(131.613912, 52.58156)"><g><path d="M 17.8125 -25.515625 C 15.738281 -25.515625 14.125 -24.664062 12.96875 -22.96875 C 11.8125 -21.28125 11.234375 -18.945312 11.234375 -15.96875 C 11.234375 -9.769531 13.585938 -6.671875 18.296875 -6.671875 C 19.722656 -6.671875 21.101562 -6.867188 22.4375 -7.265625 C 23.769531 -7.660156 25.113281 -8.140625 26.46875 -8.703125 L 26.46875 -1.34375 C 23.78125 -0.15625 20.738281 0.4375 17.34375 0.4375 C 12.488281 0.4375 8.765625 -0.96875 6.171875 -3.78125 C 3.585938 -6.601562 2.296875 -10.675781 2.296875 -16 C 2.296875 -19.332031 2.921875 -22.257812 4.171875 -24.78125 C 5.429688 -27.3125 7.238281 -29.253906 9.59375 -30.609375 C 11.945312 -31.972656 14.71875 -32.65625 17.90625 -32.65625 C 21.382812 -32.65625 24.707031 -31.898438 27.875 -30.390625 L 25.21875 -23.53125 C 24.019531 -24.09375 22.828125 -24.5625 21.640625 -24.9375 C 20.453125 -25.320312 19.175781 -25.515625 17.8125 -25.515625 Z M 17.8125 -25.515625 "/></g></g></g><g fill="rgb(8.628845%, 34.118652%, 45.098877%)" fill-opacity="1"><g transform="translate(160.875431, 52.58156)"><g><path d="M 18.671875 0 L 18.671875 -13.609375 C 18.671875 -16.953125 17.679688 -18.625 15.703125 -18.625 C 14.285156 -18.625 13.242188 -18.03125 12.578125 -16.84375 C 11.910156 -15.664062 11.578125 -13.707031 11.578125 -10.96875 L 11.578125 0 L 2.96875 0 L 2.96875 -34.265625 L 11.578125 -34.265625 L 11.578125 -29.390625 C 11.578125 -27.191406 11.460938 -24.679688 11.234375 -21.859375 L 11.625 -21.859375 C 12.445312 -23.148438 13.421875 -24.0625 14.546875 -24.59375 C 15.679688 -25.125 17 -25.390625 18.5 -25.390625 C 21.28125 -25.390625 23.445312 -24.582031 25 -22.96875 C 26.550781 -21.363281 27.328125 -19.117188 27.328125 -16.234375 L 27.328125 0 Z M 18.671875 0 "/></g></g></g><g fill="rgb(8.628845%, 34.118652%, 45.098877%)" fill-opacity="1"><g transform="translate(191.083697, 52.58156)"><g><path d="M 19.25 0 L 17.59375 -3.296875 L 17.421875 -3.296875 C 16.253906 -1.859375 15.066406 -0.875 13.859375 -0.34375 C 12.660156 0.175781 11.109375 0.4375 9.203125 0.4375 C 6.859375 0.4375 5.007812 -0.265625 3.65625 -1.671875 C 2.300781 -3.078125 1.625 -5.0625 1.625 -7.625 C 1.625 -10.28125 2.546875 -12.253906 4.390625 -13.546875 C 6.242188 -14.847656 8.925781 -15.582031 12.4375 -15.75 L 16.609375 -15.875 L 16.609375 -16.234375 C 16.609375 -18.285156 15.59375 -19.3125 13.5625 -19.3125 C 11.738281 -19.3125 9.425781 -18.691406 6.625 -17.453125 L 4.140625 -23.140625 C 7.046875 -24.640625 10.71875 -25.390625 15.15625 -25.390625 C 18.351562 -25.390625 20.828125 -24.59375 22.578125 -23 C 24.335938 -21.414062 25.21875 -19.203125 25.21875 -16.359375 L 25.21875 0 Z M 12.859375 -5.640625 C 13.898438 -5.640625 14.789062 -5.96875 15.53125 -6.625 C 16.269531 -7.289062 16.640625 -8.148438 16.640625 -9.203125 L 16.640625 -11.140625 L 14.671875 -11.046875 C 11.835938 -10.953125 10.421875 -9.910156 10.421875 -7.921875 C 10.421875 -6.398438 11.234375 -5.640625 12.859375 -5.640625 Z M 12.859375 -5.640625 "/></g></g></g><g fill="rgb(8.628845%, 34.118652%, 45.098877%)" fill-opacity="1"><g transform="translate(219.178266, 52.58156)"><g><path d="M 18.03125 -25.390625 C 18.78125 -25.390625 19.492188 -25.332031 20.171875 -25.21875 L 20.65625 -25.125 L 19.875 -17 C 19.175781 -17.175781 18.203125 -17.265625 16.953125 -17.265625 C 15.078125 -17.265625 13.710938 -16.832031 12.859375 -15.96875 C 12.003906 -15.113281 11.578125 -13.878906 11.578125 -12.265625 L 11.578125 0 L 2.96875 0 L 2.96875 -24.953125 L 9.375 -24.953125 L 10.71875 -20.96875 L 11.140625 -20.96875 C 11.859375 -22.28125 12.859375 -23.34375 14.140625 -24.15625 C 15.429688 -24.976562 16.726562 -25.390625 18.03125 -25.390625 Z M 18.03125 -25.390625 "/></g></g></g><g fill="rgb(8.628845%, 34.118652%, 45.098877%)" fill-opacity="1"><g transform="translate(240.337276, 52.58156)"><g><path d="M 15.1875 -6.359375 C 16.351562 -6.359375 17.742188 -6.644531 19.359375 -7.21875 L 19.359375 -0.953125 C 18.191406 -0.453125 17.082031 -0.0976562 16.03125 0.109375 C 14.988281 0.328125 13.765625 0.4375 12.359375 0.4375 C 9.460938 0.4375 7.375 -0.269531 6.09375 -1.6875 C 4.820312 -3.101562 4.1875 -5.28125 4.1875 -8.21875 L 4.1875 -18.5 L 1.171875 -18.5 L 1.171875 -22 L 5 -24.703125 L 7.21875 -29.9375 L 12.859375 -29.9375 L 12.859375 -24.953125 L 18.984375 -24.953125 L 18.984375 -18.5 L 12.859375 -18.5 L 12.859375 -8.78125 C 12.859375 -7.164062 13.632812 -6.359375 15.1875 -6.359375 Z M 15.1875 -6.359375 "/></g></g></g><g fill="rgb(8.628845%, 34.118652%, 45.098877%)" fill-opacity="1"><g transform="translate(261.077946, 52.58156)"><g/></g></g><g fill="rgb(8.628845%, 34.118652%, 45.098877%)" fill-opacity="1"><g transform="translate(272.791356, 52.58156)"><g><path d="M 22.234375 -7.65625 C 22.234375 -4.988281 21.320312 -2.972656 19.5 -1.609375 C 17.6875 -0.242188 15.078125 0.4375 11.671875 0.4375 C 9.816406 0.4375 8.207031 0.335938 6.84375 0.140625 C 5.476562 -0.0546875 4.085938 -0.421875 2.671875 -0.953125 L 2.671875 -7.84375 C 4.003906 -7.25 5.46875 -6.757812 7.0625 -6.375 C 8.65625 -6 10.070312 -5.8125 11.3125 -5.8125 C 13.175781 -5.8125 14.109375 -6.238281 14.109375 -7.09375 C 14.109375 -7.53125 13.847656 -7.921875 13.328125 -8.265625 C 12.804688 -8.609375 11.289062 -9.28125 8.78125 -10.28125 C 6.488281 -11.21875 4.890625 -12.285156 3.984375 -13.484375 C 3.078125 -14.679688 2.625 -16.195312 2.625 -18.03125 C 2.625 -20.351562 3.519531 -22.160156 5.3125 -23.453125 C 7.101562 -24.742188 9.632812 -25.390625 12.90625 -25.390625 C 14.550781 -25.390625 16.09375 -25.207031 17.53125 -24.84375 C 18.976562 -24.488281 20.484375 -23.96875 22.046875 -23.28125 L 19.703125 -17.71875 C 18.554688 -18.238281 17.34375 -18.675781 16.0625 -19.03125 C 14.789062 -19.394531 13.753906 -19.578125 12.953125 -19.578125 C 11.535156 -19.578125 10.828125 -19.234375 10.828125 -18.546875 C 10.828125 -18.117188 11.070312 -17.753906 11.5625 -17.453125 C 12.0625 -17.148438 13.484375 -16.535156 15.828125 -15.609375 C 17.578125 -14.890625 18.878906 -14.1875 19.734375 -13.5 C 20.597656 -12.8125 21.226562 -12 21.625 -11.0625 C 22.03125 -10.132812 22.234375 -9 22.234375 -7.65625 Z M 22.234375 -7.65625 "/></g></g></g><g fill="rgb(8.628845%, 34.118652%, 45.098877%)" fill-opacity="1"><g transform="translate(296.83467, 52.58156)"><g><path d="M 15.1875 -6.359375 C 16.351562 -6.359375 17.742188 -6.644531 19.359375 -7.21875 L 19.359375 -0.953125 C 18.191406 -0.453125 17.082031 -0.0976562 16.03125 0.109375 C 14.988281 0.328125 13.765625 0.4375 12.359375 0.4375 C 9.460938 0.4375 7.375 -0.269531 6.09375 -1.6875 C 4.820312 -3.101562 4.1875 -5.28125 4.1875 -8.21875 L 4.1875 -18.5 L 1.171875 -18.5 L 1.171875 -22 L 5 -24.703125 L 7.21875 -29.9375 L 12.859375 -29.9375 L 12.859375 -24.953125 L 18.984375 -24.953125 L 18.984375 -18.5 L 12.859375 -18.5 L 12.859375 -8.78125 C 12.859375 -7.164062 13.632812 -6.359375 15.1875 -6.359375 Z M 15.1875 -6.359375 "/></g></g></g><g fill="rgb(8.628845%, 34.118652%, 45.098877%)" fill-opacity="1"><g transform="translate(317.57534, 52.58156)"><g><path d="M 19.25 0 L 17.59375 -3.296875 L 17.421875 -3.296875 C 16.253906 -1.859375 15.066406 -0.875 13.859375 -0.34375 C 12.660156 0.175781 11.109375 0.4375 9.203125 0.4375 C 6.859375 0.4375 5.007812 -0.265625 3.65625 -1.671875 C 2.300781 -3.078125 1.625 -5.0625 1.625 -7.625 C 1.625 -10.28125 2.546875 -12.253906 4.390625 -13.546875 C 6.242188 -14.847656 8.925781 -15.582031 12.4375 -15.75 L 16.609375 -15.875 L 16.609375 -16.234375 C 16.609375 -18.285156 15.59375 -19.3125 13.5625 -19.3125 C 11.738281 -19.3125 9.425781 -18.691406 6.625 -17.453125 L 4.140625 -23.140625 C 7.046875 -24.640625 10.71875 -25.390625 15.15625 -25.390625 C 18.351562 -25.390625 20.828125 -24.59375 22.578125 -23 C 24.335938 -21.414062 25.21875 -19.203125 25.21875 -16.359375 L 25.21875 0 Z M 12.859375 -5.640625 C 13.898438 -5.640625 14.789062 -5.96875 15.53125 -6.625 C 16.269531 -7.289062 16.640625 -8.148438 16.640625 -9.203125 L 16.640625 -11.140625 L 14.671875 -11.046875 C 11.835938 -10.953125 10.421875 -9.910156 10.421875 -7.921875 C 10.421875 -6.398438 11.234375 -5.640625 12.859375 -5.640625 Z M 12.859375 -5.640625 "/></g></g></g><g fill="rgb(8.628845%, 34.118652%, 45.098877%)" fill-opacity="1"><g transform="translate(345.66989, 52.58156)"><g><path d="M 15.1875 -6.359375 C 16.351562 -6.359375 17.742188 -6.644531 19.359375 -7.21875 L 19.359375 -0.953125 C 18.191406 -0.453125 17.082031 -0.0976562 16.03125 0.109375 C 14.988281 0.328125 13.765625 0.4375 12.359375 0.4375 C 9.460938 0.4375 7.375 -0.269531 6.09375 -1.6875 C 4.820312 -3.101562 4.1875 -5.28125 4.1875 -8.21875 L 4.1875 -18.5 L 1.171875 -18.5 L 1.171875 -22 L 5 -24.703125 L 7.21875 -29.9375 L 12.859375 -29.9375 L 12.859375 -24.953125 L 18.984375 -24.953125 L 18.984375 -18.5 L 12.859375 -18.5 L 12.859375 -8.78125 C 12.859375 -7.164062 13.632812 -6.359375 15.1875 -6.359375 Z M 15.1875 -6.359375 "/></g></g></g><g fill="rgb(8.628845%, 34.118652%, 45.098877%)" fill-opacity="1"><g transform="translate(366.41056, 52.58156)"><g><path d="M 15.015625 0.4375 C 10.859375 0.4375 7.628906 -0.664062 5.328125 -2.875 C 3.035156 -5.082031 1.890625 -8.226562 1.890625 -12.3125 C 1.890625 -16.519531 2.953125 -19.75 5.078125 -22 C 7.210938 -24.257812 10.253906 -25.390625 14.203125 -25.390625 C 17.960938 -25.390625 20.863281 -24.410156 22.90625 -22.453125 C 24.957031 -20.492188 25.984375 -17.671875 25.984375 -13.984375 L 25.984375 -10.15625 L 10.59375 -10.15625 C 10.644531 -8.757812 11.148438 -7.664062 12.109375 -6.875 C 13.078125 -6.082031 14.390625 -5.6875 16.046875 -5.6875 C 17.554688 -5.6875 18.945312 -5.828125 20.21875 -6.109375 C 21.488281 -6.398438 22.867188 -6.890625 24.359375 -7.578125 L 24.359375 -1.390625 C 23.003906 -0.703125 21.609375 -0.226562 20.171875 0.03125 C 18.734375 0.300781 17.015625 0.4375 15.015625 0.4375 Z M 14.515625 -19.53125 C 13.492188 -19.53125 12.640625 -19.207031 11.953125 -18.5625 C 11.273438 -17.925781 10.878906 -16.925781 10.765625 -15.5625 L 18.171875 -15.5625 C 18.140625 -16.769531 17.796875 -17.734375 17.140625 -18.453125 C 16.484375 -19.171875 15.609375 -19.53125 14.515625 -19.53125 Z M 14.515625 -19.53125 "/></g></g></g><g fill="rgb(8.628845%, 34.118652%, 45.098877%)" fill-opacity="1"><g transform="translate(11.243214, 115.559423)"><g><path d="M 18.203125 -25.390625 C 20.921875 -25.390625 23.078125 -24.25 24.671875 -21.96875 C 26.265625 -19.695312 27.0625 -16.550781 27.0625 -12.53125 C 27.0625 -8.476562 26.253906 -5.300781 24.640625 -3 C 23.035156 -0.707031 20.800781 0.4375 17.9375 0.4375 C 17.019531 0.4375 16.203125 0.335938 15.484375 0.140625 C 14.765625 -0.0546875 14.117188 -0.332031 13.546875 -0.6875 C 12.984375 -1.039062 12.328125 -1.625 11.578125 -2.4375 L 11.046875 -2.4375 L 9.6875 0 L 2.96875 0 L 2.96875 -34.265625 L 11.578125 -34.265625 L 11.578125 -26.515625 C 11.578125 -25.585938 11.476562 -23.992188 11.28125 -21.734375 L 11.578125 -21.734375 C 12.421875 -23.023438 13.390625 -23.957031 14.484375 -24.53125 C 15.578125 -25.101562 16.816406 -25.390625 18.203125 -25.390625 Z M 15.0625 -18.625 C 13.851562 -18.625 12.96875 -18.207031 12.40625 -17.375 C 11.851562 -16.539062 11.578125 -15.226562 11.578125 -13.4375 L 11.578125 -12.21875 C 11.578125 -10.175781 11.851562 -8.710938 12.40625 -7.828125 C 12.96875 -6.941406 13.882812 -6.5 15.15625 -6.5 C 16.164062 -6.5 16.941406 -7.015625 17.484375 -8.046875 C 18.023438 -9.078125 18.296875 -10.597656 18.296875 -12.609375 C 18.296875 -16.617188 17.21875 -18.625 15.0625 -18.625 Z M 15.0625 -18.625 "/></g></g></g><g fill="rgb(8.628845%, 34.118652%, 45.098877%)" fill-opacity="1"><g transform="translate(40.240512, 115.559423)"><g><path d="M 19.25 0 L 17.59375 -3.296875 L 17.421875 -3.296875 C 16.253906 -1.859375 15.066406 -0.875 13.859375 -0.34375 C 12.660156 0.175781 11.109375 0.4375 9.203125 0.4375 C 6.859375 0.4375 5.007812 -0.265625 3.65625 -1.671875 C 2.300781 -3.078125 1.625 -5.0625 1.625 -7.625 C 1.625 -10.28125 2.546875 -12.253906 4.390625 -13.546875 C 6.242188 -14.847656 8.925781 -15.582031 12.4375 -15.75 L 16.609375 -15.875 L 16.609375 -16.234375 C 16.609375 -18.285156 15.59375 -19.3125 13.5625 -19.3125 C 11.738281 -19.3125 9.425781 -18.691406 6.625 -17.453125 L 4.140625 -23.140625 C 7.046875 -24.640625 10.71875 -25.390625 15.15625 -25.390625 C 18.351562 -25.390625 20.828125 -24.59375 22.578125 -23 C 24.335938 -21.414062 25.21875 -19.203125 25.21875 -16.359375 L 25.21875 0 Z M 12.859375 -5.640625 C 13.898438 -5.640625 14.789062 -5.96875 15.53125 -6.625 C 16.269531 -7.289062 16.640625 -8.148438 16.640625 -9.203125 L 16.640625 -11.140625 L 14.671875 -11.046875 C 11.835938 -10.953125 10.421875 -9.910156 10.421875 -7.921875 C 10.421875 -6.398438 11.234375 -5.640625 12.859375 -5.640625 Z M 12.859375 -5.640625 "/></g></g></g><g fill="rgb(8.628845%, 34.118652%, 45.098877%)" fill-opacity="1"><g transform="translate(68.33508, 115.559423)"><g><path d="M 22.234375 -7.65625 C 22.234375 -4.988281 21.320312 -2.972656 19.5 -1.609375 C 17.6875 -0.242188 15.078125 0.4375 11.671875 0.4375 C 9.816406 0.4375 8.207031 0.335938 6.84375 0.140625 C 5.476562 -0.0546875 4.085938 -0.421875 2.671875 -0.953125 L 2.671875 -7.84375 C 4.003906 -7.25 5.46875 -6.757812 7.0625 -6.375 C 8.65625 -6 10.070312 -5.8125 11.3125 -5.8125 C 13.175781 -5.8125 14.109375 -6.238281 14.109375 -7.09375 C 14.109375 -7.53125 13.847656 -7.921875 13.328125 -8.265625 C 12.804688 -8.609375 11.289062 -9.28125 8.78125 -10.28125 C 6.488281 -11.21875 4.890625 -12.285156 3.984375 -13.484375 C 3.078125 -14.679688 2.625 -16.195312 2.625 -18.03125 C 2.625 -20.351562 3.519531 -22.160156 5.3125 -23.453125 C 7.101562 -24.742188 9.632812 -25.390625 12.90625 -25.390625 C 14.550781 -25.390625 16.09375 -25.207031 17.53125 -24.84375 C 18.976562 -24.488281 20.484375 -23.96875 22.046875 -23.28125 L 19.703125 -17.71875 C 18.554688 -18.238281 17.34375 -18.675781 16.0625 -19.03125 C 14.789062 -19.394531 13.753906 -19.578125 12.953125 -19.578125 C 11.535156 -19.578125 10.828125 -19.234375 10.828125 -18.546875 C 10.828125 -18.117188 11.070312 -17.753906 11.5625 -17.453125 C 12.0625 -17.148438 13.484375 -16.535156 15.828125 -15.609375 C 17.578125 -14.890625 18.878906 -14.1875 19.734375 -13.5 C 20.597656 -12.8125 21.226562 -12 21.625 -11.0625 C 22.03125 -10.132812 22.234375 -9 22.234375 -7.65625 Z M 22.234375 -7.65625 "/></g></g></g><g fill="rgb(8.628845%, 34.118652%, 45.098877%)" fill-opacity="1"><g transform="translate(92.378394, 115.559423)"><g><path d="M 15.015625 0.4375 C 10.859375 0.4375 7.628906 -0.664062 5.328125 -2.875 C 3.035156 -5.082031 1.890625 -8.226562 1.890625 -12.3125 C 1.890625 -16.519531 2.953125 -19.75 5.078125 -22 C 7.210938 -24.257812 10.253906 -25.390625 14.203125 -25.390625 C 17.960938 -25.390625 20.863281 -24.410156 22.90625 -22.453125 C 24.957031 -20.492188 25.984375 -17.671875 25.984375 -13.984375 L 25.984375 -10.15625 L 10.59375 -10.15625 C 10.644531 -8.757812 11.148438 -7.664062 12.109375 -6.875 C 13.078125 -6.082031 14.390625 -5.6875 16.046875 -5.6875 C 17.554688 -5.6875 18.945312 -5.828125 20.21875 -6.109375 C 21.488281 -6.398438 22.867188 -6.890625 24.359375 -7.578125 L 24.359375 -1.390625 C 23.003906 -0.703125 21.609375 -0.226562 20.171875 0.03125 C 18.734375 0.300781 17.015625 0.4375 15.015625 0.4375 Z M 14.515625 -19.53125 C 13.492188 -19.53125 12.640625 -19.207031 11.953125 -18.5625 C 11.273438 -17.925781 10.878906 -16.925781 10.765625 -15.5625 L 18.171875 -15.5625 C 18.140625 -16.769531 17.796875 -17.734375 17.140625 -18.453125 C 16.484375 -19.171875 15.609375 -19.53125 14.515625 -19.53125 Z M 14.515625 -19.53125 "/></g></g></g><g fill="rgb(8.628845%, 34.118652%, 45.098877%)" fill-opacity="1"><g transform="translate(120.252786, 115.559423)"><g><path d="M 10.71875 0.4375 C 8.945312 0.4375 7.394531 -0.0664062 6.0625 -1.078125 C 4.738281 -2.085938 3.710938 -3.578125 2.984375 -5.546875 C 2.253906 -7.515625 1.890625 -9.8125 1.890625 -12.4375 C 1.890625 -16.488281 2.703125 -19.660156 4.328125 -21.953125 C 5.960938 -24.242188 8.203125 -25.390625 11.046875 -25.390625 C 12.441406 -25.390625 13.664062 -25.109375 14.71875 -24.546875 C 15.769531 -23.992188 16.726562 -23.054688 17.59375 -21.734375 L 17.765625 -21.734375 C 17.484375 -23.679688 17.34375 -25.632812 17.34375 -27.59375 L 17.34375 -34.265625 L 26.03125 -34.265625 L 26.03125 0 L 19.53125 0 L 17.6875 -3.15625 L 17.34375 -3.15625 C 15.863281 -0.757812 13.65625 0.4375 10.71875 0.4375 Z M 14.25 -6.359375 C 15.625 -6.359375 16.59375 -6.789062 17.15625 -7.65625 C 17.726562 -8.53125 18.035156 -9.867188 18.078125 -11.671875 L 18.078125 -12.359375 C 18.078125 -14.554688 17.757812 -16.117188 17.125 -17.046875 C 16.5 -17.984375 15.507812 -18.453125 14.15625 -18.453125 C 13.03125 -18.453125 12.15625 -17.921875 11.53125 -16.859375 C 10.90625 -15.796875 10.59375 -14.28125 10.59375 -12.3125 C 10.59375 -10.375 10.90625 -8.894531 11.53125 -7.875 C 12.164062 -6.863281 13.070312 -6.359375 14.25 -6.359375 Z M 14.25 -6.359375 "/></g></g></g><g fill="rgb(8.628845%, 34.118652%, 45.098877%)" fill-opacity="1"><g transform="translate(149.250084, 115.559423)"><g/></g></g><g fill="rgb(8.628845%, 34.118652%, 45.098877%)" fill-opacity="1"><g transform="translate(160.963484, 115.559423)"><g><path d="M 14.328125 0.4375 C 10.253906 0.4375 7.160156 -0.660156 5.046875 -2.859375 C 2.941406 -5.066406 1.890625 -8.234375 1.890625 -12.359375 C 1.890625 -16.492188 3.023438 -19.695312 5.296875 -21.96875 C 7.578125 -24.25 10.816406 -25.390625 15.015625 -25.390625 C 17.910156 -25.390625 20.632812 -24.757812 23.1875 -23.5 L 20.65625 -17.125 C 19.613281 -17.582031 18.648438 -17.945312 17.765625 -18.21875 C 16.890625 -18.488281 15.972656 -18.625 15.015625 -18.625 C 13.617188 -18.625 12.539062 -18.082031 11.78125 -17 C 11.019531 -15.914062 10.640625 -14.378906 10.640625 -12.390625 C 10.640625 -8.398438 12.113281 -6.40625 15.0625 -6.40625 C 17.582031 -6.40625 20.003906 -7.140625 22.328125 -8.609375 L 22.328125 -1.765625 C 20.109375 -0.296875 17.441406 0.4375 14.328125 0.4375 Z M 14.328125 0.4375 "/></g></g></g><g fill="rgb(8.628845%, 34.118652%, 45.098877%)" fill-opacity="1"><g transform="translate(185.27101, 115.559423)"><g><path d="M 26.796875 -12.53125 C 26.796875 -8.445312 25.695312 -5.265625 23.5 -2.984375 C 21.3125 -0.703125 18.242188 0.4375 14.296875 0.4375 C 10.503906 0.4375 7.488281 -0.726562 5.25 -3.0625 C 3.007812 -5.394531 1.890625 -8.550781 1.890625 -12.53125 C 1.890625 -16.59375 2.988281 -19.75 5.1875 -22 C 7.382812 -24.257812 10.460938 -25.390625 14.421875 -25.390625 C 16.867188 -25.390625 19.03125 -24.867188 20.90625 -23.828125 C 22.789062 -22.785156 24.242188 -21.289062 25.265625 -19.34375 C 26.285156 -17.394531 26.796875 -15.125 26.796875 -12.53125 Z M 10.640625 -12.53125 C 10.640625 -10.382812 10.925781 -8.75 11.5 -7.625 C 12.070312 -6.5 13.03125 -5.9375 14.375 -5.9375 C 15.707031 -5.9375 16.648438 -6.5 17.203125 -7.625 C 17.753906 -8.75 18.03125 -10.382812 18.03125 -12.53125 C 18.03125 -14.65625 17.75 -16.257812 17.1875 -17.34375 C 16.632812 -18.4375 15.679688 -18.984375 14.328125 -18.984375 C 13.015625 -18.984375 12.070312 -18.441406 11.5 -17.359375 C 10.925781 -16.285156 10.640625 -14.675781 10.640625 -12.53125 Z M 10.640625 -12.53125 "/></g></g></g><g fill="rgb(8.628845%, 34.118652%, 45.098877%)" fill-opacity="1"><g transform="translate(214.004105, 115.559423)"><g><path d="M 10.71875 0.4375 C 8.945312 0.4375 7.394531 -0.0664062 6.0625 -1.078125 C 4.738281 -2.085938 3.710938 -3.578125 2.984375 -5.546875 C 2.253906 -7.515625 1.890625 -9.8125 1.890625 -12.4375 C 1.890625 -16.488281 2.703125 -19.660156 4.328125 -21.953125 C 5.960938 -24.242188 8.203125 -25.390625 11.046875 -25.390625 C 12.441406 -25.390625 13.664062 -25.109375 14.71875 -24.546875 C 15.769531 -23.992188 16.726562 -23.054688 17.59375 -21.734375 L 17.765625 -21.734375 C 17.484375 -23.679688 17.34375 -25.632812 17.34375 -27.59375 L 17.34375 -34.265625 L 26.03125 -34.265625 L 26.03125 0 L 19.53125 0 L 17.6875 -3.15625 L 17.34375 -3.15625 C 15.863281 -0.757812 13.65625 0.4375 10.71875 0.4375 Z M 14.25 -6.359375 C 15.625 -6.359375 16.59375 -6.789062 17.15625 -7.65625 C 17.726562 -8.53125 18.035156 -9.867188 18.078125 -11.671875 L 18.078125 -12.359375 C 18.078125 -14.554688 17.757812 -16.117188 17.125 -17.046875 C 16.5 -17.984375 15.507812 -18.453125 14.15625 -18.453125 C 13.03125 -18.453125 12.15625 -17.921875 11.53125 -16.859375 C 10.90625 -15.796875 10.59375 -14.28125 10.59375 -12.3125 C 10.59375 -10.375 10.90625 -8.894531 11.53125 -7.875 C 12.164062 -6.863281 13.070312 -6.359375 14.25 -6.359375 Z M 14.25 -6.359375 "/></g></g></g><g fill="rgb(8.628845%, 34.118652%, 45.098877%)" fill-opacity="1"><g transform="translate(243.001394, 115.559423)"><g><path d="M 15.015625 0.4375 C 10.859375 0.4375 7.628906 -0.664062 5.328125 -2.875 C 3.035156 -5.082031 1.890625 -8.226562 1.890625 -12.3125 C 1.890625 -16.519531 2.953125 -19.75 5.078125 -22 C 7.210938 -24.257812 10.253906 -25.390625 14.203125 -25.390625 C 17.960938 -25.390625 20.863281 -24.410156 22.90625 -22.453125 C 24.957031 -20.492188 25.984375 -17.671875 25.984375 -13.984375 L 25.984375 -10.15625 L 10.59375 -10.15625 C 10.644531 -8.757812 11.148438 -7.664062 12.109375 -6.875 C 13.078125 -6.082031 14.390625 -5.6875 16.046875 -5.6875 C 17.554688 -5.6875 18.945312 -5.828125 20.21875 -6.109375 C 21.488281 -6.398438 22.867188 -6.890625 24.359375 -7.578125 L 24.359375 -1.390625 C 23.003906 -0.703125 21.609375 -0.226562 20.171875 0.03125 C 18.734375 0.300781 17.015625 0.4375 15.015625 0.4375 Z M 14.515625 -19.53125 C 13.492188 -19.53125 12.640625 -19.207031 11.953125 -18.5625 C 11.273438 -17.925781 10.878906 -16.925781 10.765625 -15.5625 L 18.171875 -15.5625 C 18.140625 -16.769531 17.796875 -17.734375 17.140625 -18.453125 C 16.484375 -19.171875 15.609375 -19.53125 14.515625 -19.53125 Z M 14.515625 -19.53125 "/></g></g></g><g fill="rgb(8.628845%, 34.118652%, 45.098877%)" fill-opacity="1"><g transform="translate(270.875777, 115.559423)"><g/></g></g><g fill="rgb(8.628845%, 34.118652%, 45.098877%)" fill-opacity="1"><g transform="translate(282.589187, 115.559423)"><g><path d="M 15.015625 0.4375 C 10.859375 0.4375 7.628906 -0.664062 5.328125 -2.875 C 3.035156 -5.082031 1.890625 -8.226562 1.890625 -12.3125 C 1.890625 -16.519531 2.953125 -19.75 5.078125 -22 C 7.210938 -24.257812 10.253906 -25.390625 14.203125 -25.390625 C 17.960938 -25.390625 20.863281 -24.410156 22.90625 -22.453125 C 24.957031 -20.492188 25.984375 -17.671875 25.984375 -13.984375 L 25.984375 -10.15625 L 10.59375 -10.15625 C 10.644531 -8.757812 11.148438 -7.664062 12.109375 -6.875 C 13.078125 -6.082031 14.390625 -5.6875 16.046875 -5.6875 C 17.554688 -5.6875 18.945312 -5.828125 20.21875 -6.109375 C 21.488281 -6.398438 22.867188 -6.890625 24.359375 -7.578125 L 24.359375 -1.390625 C 23.003906 -0.703125 21.609375 -0.226562 20.171875 0.03125 C 18.734375 0.300781 17.015625 0.4375 15.015625 0.4375 Z M 14.515625 -19.53125 C 13.492188 -19.53125 12.640625 -19.207031 11.953125 -18.5625 C 11.273438 -17.925781 10.878906 -16.925781 10.765625 -15.5625 L 18.171875 -15.5625 C 18.140625 -16.769531 17.796875 -17.734375 17.140625 -18.453125 C 16.484375 -19.171875 15.609375 -19.53125 14.515625 -19.53125 Z M 14.515625 -19.53125 "/></g></g></g><g fill="rgb(8.628845%, 34.118652%, 45.098877%)" fill-opacity="1"><g transform="translate(310.463587, 115.559423)"><g><path d="M 10.71875 0.4375 C 8.945312 0.4375 7.394531 -0.0664062 6.0625 -1.078125 C 4.738281 -2.085938 3.710938 -3.578125 2.984375 -5.546875 C 2.253906 -7.515625 1.890625 -9.8125 1.890625 -12.4375 C 1.890625 -16.488281 2.703125 -19.660156 4.328125 -21.953125 C 5.960938 -24.242188 8.203125 -25.390625 11.046875 -25.390625 C 12.441406 -25.390625 13.664062 -25.109375 14.71875 -24.546875 C 15.769531 -23.992188 16.726562 -23.054688 17.59375 -21.734375 L 17.765625 -21.734375 C 17.484375 -23.679688 17.34375 -25.632812 17.34375 -27.59375 L 17.34375 -34.265625 L 26.03125 -34.265625 L 26.03125 0 L 19.53125 0 L 17.6875 -3.15625 L 17.34375 -3.15625 C 15.863281 -0.757812 13.65625 0.4375 10.71875 0.4375 Z M 14.25 -6.359375 C 15.625 -6.359375 16.59375 -6.789062 17.15625 -7.65625 C 17.726562 -8.53125 18.035156 -9.867188 18.078125 -11.671875 L 18.078125 -12.359375 C 18.078125 -14.554688 17.757812 -16.117188 17.125 -17.046875 C 16.5 -17.984375 15.507812 -18.453125 14.15625 -18.453125 C 13.03125 -18.453125 12.15625 -17.921875 11.53125 -16.859375 C 10.90625 -15.796875 10.59375 -14.28125 10.59375 -12.3125 C 10.59375 -10.375 10.90625 -8.894531 11.53125 -7.875 C 12.164062 -6.863281 13.070312 -6.359375 14.25 -6.359375 Z M 14.25 -6.359375 "/></g></g></g><g fill="rgb(8.628845%, 34.118652%, 45.098877%)" fill-opacity="1"><g transform="translate(339.460876, 115.559423)"><g><path d="M 11.625 0 L 3.015625 0 L 3.015625 -24.953125 L 11.625 -24.953125 Z M 2.796875 -31.15625 C 2.796875 -32.445312 3.15625 -33.40625 3.875 -34.03125 C 4.59375 -34.664062 5.753906 -34.984375 7.359375 -34.984375 C 8.953125 -34.984375 10.113281 -34.660156 10.84375 -34.015625 C 11.582031 -33.367188 11.953125 -32.414062 11.953125 -31.15625 C 11.953125 -28.632812 10.421875 -27.375 7.359375 -27.375 C 4.316406 -27.375 2.796875 -28.632812 2.796875 -31.15625 Z M 2.796875 -31.15625 "/></g></g></g><g fill="rgb(8.628845%, 34.118652%, 45.098877%)" fill-opacity="1"><g transform="translate(354.124647, 115.559423)"><g><path d="M 15.1875 -6.359375 C 16.351562 -6.359375 17.742188 -6.644531 19.359375 -7.21875 L 19.359375 -0.953125 C 18.191406 -0.453125 17.082031 -0.0976562 16.03125 0.109375 C 14.988281 0.328125 13.765625 0.4375 12.359375 0.4375 C 9.460938 0.4375 7.375 -0.269531 6.09375 -1.6875 C 4.820312 -3.101562 4.1875 -5.28125 4.1875 -8.21875 L 4.1875 -18.5 L 1.171875 -18.5 L 1.171875 -22 L 5 -24.703125 L 7.21875 -29.9375 L 12.859375 -29.9375 L 12.859375 -24.953125 L 18.984375 -24.953125 L 18.984375 -18.5 L 12.859375 -18.5 L 12.859375 -8.78125 C 12.859375 -7.164062 13.632812 -6.359375 15.1875 -6.359375 Z M 15.1875 -6.359375 "/></g></g></g><g fill="rgb(8.628845%, 34.118652%, 45.098877%)" fill-opacity="1"><g transform="translate(374.865317, 115.559423)"><g><path d="M 26.796875 -12.53125 C 26.796875 -8.445312 25.695312 -5.265625 23.5 -2.984375 C 21.3125 -0.703125 18.242188 0.4375 14.296875 0.4375 C 10.503906 0.4375 7.488281 -0.726562 5.25 -3.0625 C 3.007812 -5.394531 1.890625 -8.550781 1.890625 -12.53125 C 1.890625 -16.59375 2.988281 -19.75 5.1875 -22 C 7.382812 -24.257812 10.460938 -25.390625 14.421875 -25.390625 C 16.867188 -25.390625 19.03125 -24.867188 20.90625 -23.828125 C 22.789062 -22.785156 24.242188 -21.289062 25.265625 -19.34375 C 26.285156 -17.394531 26.796875 -15.125 26.796875 -12.53125 Z M 10.640625 -12.53125 C 10.640625 -10.382812 10.925781 -8.75 11.5 -7.625 C 12.070312 -6.5 13.03125 -5.9375 14.375 -5.9375 C 15.707031 -5.9375 16.648438 -6.5 17.203125 -7.625 C 17.753906 -8.75 18.03125 -10.382812 18.03125 -12.53125 C 18.03125 -14.65625 17.75 -16.257812 17.1875 -17.34375 C 16.632812 -18.4375 15.679688 -18.984375 14.328125 -18.984375 C 13.015625 -18.984375 12.070312 -18.441406 11.5 -17.359375 C 10.925781 -16.285156 10.640625 -14.675781 10.640625 -12.53125 Z M 10.640625 -12.53125 "/></g></g></g><g fill="rgb(8.628845%, 34.118652%, 45.098877%)" fill-opacity="1"><g transform="translate(403.598412, 115.559423)"><g><path d="M 18.03125 -25.390625 C 18.78125 -25.390625 19.492188 -25.332031 20.171875 -25.21875 L 20.65625 -25.125 L 19.875 -17 C 19.175781 -17.175781 18.203125 -17.265625 16.953125 -17.265625 C 15.078125 -17.265625 13.710938 -16.832031 12.859375 -15.96875 C 12.003906 -15.113281 11.578125 -13.878906 11.578125 -12.265625 L 11.578125 0 L 2.96875 0 L 2.96875 -24.953125 L 9.375 -24.953125 L 10.71875 -20.96875 L 11.140625 -20.96875 C 11.859375 -22.28125 12.859375 -23.34375 14.140625 -24.15625 C 15.429688 -24.976562 16.726562 -25.390625 18.03125 -25.390625 Z M 18.03125 -25.390625 "/></g></g></g></svg>